<svg xmlns="http://www.w3.org/2000/svg" version="1.1" xmlns:xlink="http://www.w3.org/1999/xlink" xmlns:svgjs="http://svgjs.dev/svgjs" width="1500" height="1500" viewBox="0 0 1500 1500"><g transform="matrix(1,0,0,1,-0.323615160350073,-0.3236151603499593)"><svg viewBox="0 0 343 343" data-background-color="#333333" preserveAspectRatio="xMidYMid meet" height="1500" width="1500" xmlns="http://www.w3.org/2000/svg" xmlns:xlink="http://www.w3.org/1999/xlink"><g id="tight-bounds" transform="matrix(1,0,0,1,0.0740000000000407,0.07400000000001228)"><svg viewBox="0 0 342.85155851775386 342.85155851775386" height="342.85155851775386" width="342.85155851775386"><g><svg></svg></g><g><svg viewBox="0 0 342.85155851775386 342.85155851775386" height="342.85155851775386" width="342.85155851775386"><g><path d="M0 171.426c0-94.676 76.75-171.426 171.426-171.426 94.676 0 171.426 76.75 171.426 171.426 0 94.676-76.75 171.426-171.426 171.426-94.676 0-171.426-76.75-171.426-171.426zM171.426 337.863c91.921 0 166.437-74.516 166.437-166.437 0-91.921-74.516-166.437-166.437-166.437-91.921 0-166.437 74.516-166.437 166.437 0 91.921 74.516 166.437 166.437 166.437z" data-fill-palette-color="tertiary" fill="#7fc37e" stroke="transparent"></path><ellipse rx="164.56874808852186" ry="164.56874808852186" cx="171.42577925887693" cy="171.42577925887693" fill="#7fc37e" stroke="transparent" stroke-width="0" fill-opacity="1" data-fill-palette-color="tertiary"></ellipse></g><g transform="matrix(1,0,0,1,64.84655864529837,99.00918923645864)"><svg viewBox="0 0 213.1584412271571 144.83318004483658" height="144.83318004483658" width="213.1584412271571"><g><svg viewBox="0 0 213.1584412271571 144.83318004483658" height="144.83318004483658" width="213.1584412271571"><g><svg viewBox="0 0 213.1584412271571 144.83318004483658" height="144.83318004483658" width="213.1584412271571"><g transform="matrix(1,0,0,1,0,89.51271568672146)"><svg viewBox="0 0 213.1584412271571 55.3204643581151" height="55.3204643581151" width="213.1584412271571"><g id="textblocktransform"><svg viewBox="0 0 213.1584412271571 55.3204643581151" height="55.3204643581151" width="213.1584412271571" id="textblock"><g><svg viewBox="0 0 213.1584412271571 55.3204643581151" height="55.3204643581151" width="213.1584412271571"><g transform="matrix(1,0,0,1,0,0)"><svg width="213.1584412271571" viewBox="2.0999999999999996 -33.3 131.19 34.05" height="55.3204643581151" data-palette-color="#333333"><path d="M15.65-33.3Q21.75-33.3 24.88-29.65 28-26 28-19.23 28-12.45 24.58-7.03 21.15-1.6 15.05 0.75L15.05 0.75Q9.2 0.75 5.65-3.13 2.1-7 2.1-13.25L2.1-13.25Q2.1-23.45 9.5-30.15L9.5-30.15 10.1-29.75Q6.55-24.6 6.55-16.95L6.55-16.95Q6.55-11.5 9.08-7.18 11.6-2.85 16.1-2.85L16.1-2.85Q19.05-2.85 21.05-4.6L21.05-4.6Q23.55-9.2 23.55-15.5L23.55-15.5Q23.55-23.75 20.4-27.6L20.4-27.6Q18.7-29.7 16.15-29.7L16.15-29.7Q14.85-29.7 13.75-28.95 12.65-28.2 12.2-27L12.2-27Q12.2-26 12.65-24.68 13.1-23.35 13.8-23L13.8-23 13.9-22.65Q12.8-21.3 12.25-19.8L12.25-19.8Q12.15-19.75 11.85-19.75L11.85-19.75Q10.05-19.75 10.05-22.95L10.05-22.95Q10.05-28.35 15.65-33.3L15.65-33.3ZM47.65-23.35L47.65-23.35Q45.9-24.2 43.6-24.2 41.3-24.2 40.1-24L40.1-24Q39.7-21.3 39.7-14.75L39.7-14.75Q41.45-14.4 43.05-14.4L43.05-14.4Q46-14.4 46.85-16.15L46.85-16.15 47.9-16Q47.45-14.5 47.45-13.05 47.45-11.6 47.8-9.5L47.8-9.5 46.6-9.3Q46.05-10.8 45.8-12.4L45.8-12.4Q43.8-12.6 42.8-12.6 41.8-12.6 39.7-12.35L39.7-12.35Q39.7-5.55 40.15-1.65L40.15-1.65Q42.35-1.4 44.6-0.85L44.6-0.85 44.45 0.4Q42 0 38.55 0 35.1 0 32.55 0.4L32.55 0.4 32.35-0.9Q33.85-1.4 35.5-1.65L35.5-1.65Q35.95-5.25 35.95-11.85L35.95-11.85 35.95-14.2Q35.95-18.8 35.45-24.4L35.45-24.4Q33.65-24.75 32.25-25.3L32.25-25.3 32.4-26.55Q36.15-26.05 42.07-26.05 48-26.05 51.25-26.6L51.25-26.6 51.5-25.6Q49.5-23.5 49.25-19.35L49.25-19.35 48-19.35Q47.65-21 47.65-23.35ZM69.64-23.35L69.64-23.35Q67.89-24.2 65.59-24.2 63.3-24.2 62.09-24L62.09-24Q61.7-21.3 61.7-14.75L61.7-14.75Q63.45-14.4 65.05-14.4L65.05-14.4Q68-14.4 68.84-16.15L68.84-16.15 69.89-16Q69.44-14.5 69.44-13.05 69.44-11.6 69.8-9.5L69.8-9.5 68.59-9.3Q68.05-10.8 67.8-12.4L67.8-12.4Q65.8-12.6 64.8-12.6 63.8-12.6 61.7-12.35L61.7-12.35Q61.7-5.55 62.14-1.65L62.14-1.65Q64.34-1.4 66.59-0.85L66.59-0.85 66.44 0.4Q63.99 0 60.55 0 57.09 0 54.55 0.4L54.55 0.4 54.34-0.9Q55.84-1.4 57.49-1.65L57.49-1.65Q57.95-5.25 57.95-11.85L57.95-11.85 57.95-14.2Q57.95-18.8 57.45-24.4L57.45-24.4Q55.64-24.75 54.24-25.3L54.24-25.3 54.39-26.55Q58.14-26.05 64.07-26.05 70-26.05 73.25-26.6L73.25-26.6 73.5-25.6Q71.5-23.5 71.25-19.35L71.25-19.35 70-19.35Q69.64-21 69.64-23.35ZM84.09-24.4L84.09-24.4Q83.69-21.7 83.69-13.35 83.69-5 84.14-1.65L84.14-1.65Q86.39-1.4 88.29-0.9L88.29-0.9 88.14 0.35Q85.54 0 82.32 0 79.09 0 76.54 0.4L76.54 0.4 76.34-0.9Q77.74-1.35 79.49-1.65L79.49-1.65Q79.94-5.25 79.94-11.85L79.94-11.85 79.94-14.2Q79.94-20.8 79.44-24.4L79.44-24.4Q77.69-24.7 76.29-25.15L76.29-25.15 76.49-26.45Q79.04-26.05 82.27-26.05 85.49-26.05 88.09-26.4L88.09-26.4 88.24-25.15Q86.34-24.65 84.09-24.4ZM102.99-2.9L102.99-2.9Q106.44-2.9 109.49-5.95L109.49-5.95 110.19-5.25Q106.84-1 102.14 0.6L102.14 0.6Q97.29 0.6 94.54-2.48 91.79-5.55 91.79-10.78 91.79-16 95.04-20.6 98.29-25.2 103.34-26.65L103.34-26.65Q106.99-26.65 111.59-25.9L111.59-25.9 111.54-24.8Q110.59-24.8 109.74-24.45L109.74-24.45Q108.79-22.2 108.49-19.1L108.49-19.1 107.24-19.1Q106.84-20.8 106.84-22.6L106.84-22.6Q104.94-23.55 102.34-23.55 99.74-23.55 98.04-22.15L98.04-22.15Q96.09-18.6 96.09-13.55L96.09-13.55Q96.09-5.7 99.44-3.7L99.44-3.7Q100.89-2.9 102.99-2.9ZM117.79-12.35Q117.94-7.9 119.44-5.4 120.94-2.9 124.54-2.9 128.14-2.9 131.19-5.95L131.19-5.95 131.89-5.25Q128.54-1 123.84 0.6L123.84 0.6Q118.99 0.6 116.24-2.48 113.49-5.55 113.49-10.78 113.49-16 116.74-20.6 119.99-25.2 125.04-26.65L125.04-26.65Q128.69-26.65 133.29-25.9L133.29-25.9 133.24-24.8Q132.29-24.8 131.44-24.45L131.44-24.45Q130.49-22.2 130.19-19.1L130.19-19.1 128.94-19.1Q128.54-20.8 128.54-22.6L128.54-22.6Q126.64-23.55 124.04-23.55 121.44-23.55 119.74-22.15L119.74-22.15Q118.04-19.05 117.79-14.75L117.79-14.75Q119.89-14.4 122.29-14.4L122.29-14.4Q126.44-14.4 127.29-16.15L127.29-16.15 128.34-16Q127.89-14.5 127.89-13.05 127.89-11.6 128.24-9.5L128.24-9.5 127.04-9.3Q126.49-10.8 126.24-12.4L126.24-12.4Q124.24-12.6 122.26-12.6 120.29-12.6 117.79-12.35L117.79-12.35Z" opacity="1" transform="matrix(1,0,0,1,0,0)" fill="#333333" class="wordmark-text-0" data-fill-palette-color="quaternary" id="text-0"></path></svg></g></svg></g></svg></g></svg></g><g transform="matrix(1,0,0,1,61.07155290946243,0)"><svg viewBox="0 0 91.01533540823225 76.45288174291508" height="76.45288174291508" width="91.01533540823225"><g><svg version="1.1" xmlns="http://www.w3.org/2000/svg" xmlns:xlink="http://www.w3.org/1999/xlink" x="0" y="0" viewBox="0 0 100 84" enable-background="new 0 0 100 84" xml:space="preserve" height="76.45288174291508" width="91.01533540823225" class="icon-icon-0" data-fill-palette-color="quaternary" id="icon-0"><polygon points="82,32.641 82,9 68,9 68,18.359 50,0 0,51 12,51 12,84 43,84 43,57 57,57 57,84 88,84 88,51 100,51 " fill="#333333" data-fill-palette-color="quaternary"></polygon></svg></g></svg></g><g></g></svg></g></svg></g></svg></g></svg></g><defs></defs></svg><rect width="342.85155851775386" height="342.85155851775386" fill="none" stroke="none" visibility="hidden"></rect></g></svg></g></svg>